<svg xmlns="http://www.w3.org/2000/svg" xmlns:xlink="http://www.w3.org/1999/xlink" xmlns:fi="http://pattern.flaticon.com/" x="0" y="0" width="1000" height="1000" viewBox="0 0 1400 1400"><rect x="0px" y="0px" width="100%" height="100%" opacity="1" fill="#141414"/><defs><g transform="matrix(0.12400053441524506 0 0 0.12400053441524506 2.7118855714797974 290.2749176374132)" id="L1_3"><path d="m167.289062 272.132812c-1.601562 0-3.214843-.550781-4.53125-1.671874l-45.296874-38.570313c-1.5625-1.332031-2.460938-3.277344-2.460938-5.332031 0-2.050782.902344-3.996094 2.460938-5.328125l45.296874-38.570313c2.941407-2.507812 7.359376-2.152344 9.867188.789063 2.503906 2.945312 2.152344 7.363281-.792969 9.867187l-39.035156 33.242188 39.035156 33.242187c2.945313 2.507813 3.296875 6.925781.792969 9.867188-1.386719 1.628906-3.355469 2.464843-5.335938 2.464843zm0 0"/><path d="m256.710938 272.132812c-1.980469 0-3.949219-.835937-5.332032-2.464843-2.507812-2.941407-2.152344-7.359375.789063-9.867188l39.035156-33.242187-39.035156-33.242188c-2.941407-2.503906-3.296875-6.921875-.789063-9.867187 2.503906-2.941407 6.925782-3.296875 9.863282-.789063l45.296874 38.570313c1.5625 1.332031 2.460938 3.277343 2.460938 5.328125 0 2.054687-.898438 4-2.460938 5.332031l-45.296874 38.570313c-1.316407 1.121093-2.929688 1.671874-4.53125 1.671874zm0 0"/><path d="m195.964844 301.0625c-.480469 0-.964844-.050781-1.453125-.152344-3.78125-.796875-6.203125-4.511718-5.40625-8.292968l28.230469-134.035157c.796874-3.78125 4.507812-6.203125 8.292968-5.40625 3.78125.796875 6.203125 4.507813 5.40625 8.292969l-28.230468 134.035156c-.695313 3.296875-3.601563 5.558594-6.839844 5.558594zm0 0"/><path d="m377 374.085938h-330c-25.914062 0-47-21.082032-47-47v-280.085938c0-25.914062 21.085938-47 47-47h330c25.914062 0 47 21.085938 47 47v280.085938c0 25.917968-21.085938 47-47 47zm-330-360.085938c-18.195312 0-33 14.804688-33 33v280.085938c0 18.195312 14.804688 33 33 33h330c18.195312 0 33-14.804688 33-33v-280.085938c0-18.195312-14.804688-33-33-33zm0 0"/><path d="m417 112.089844h-410c-3.867188 0-7-3.132813-7-7 0-3.863282 3.132812-7 7-7h410c3.867188 0 7 3.136718 7 7 0 3.867187-3.132812 7-7 7zm0 0"/><path d="m119.601562 78.59375c-12.210937 0-22.152343-9.941406-22.152343-22.152344 0-12.214844 9.941406-22.152344 22.152343-22.152344 12.214844 0 22.152344 9.9375 22.152344 22.152344 0 12.210938-9.9375 22.152344-22.152344 22.152344zm0-30.304688c-4.492187 0-8.152343 3.65625-8.152343 8.152344s3.660156 8.152344 8.152343 8.152344c4.496094 0 8.152344-3.65625 8.152344-8.152344s-3.65625-8.152344-8.152344-8.152344zm0 0"/><path d="m51.539062 78.378906c-12.214843 0-22.152343-9.9375-22.152343-22.152344 0-12.214843 9.9375-22.152343 22.152343-22.152343 12.214844 0 22.152344 9.9375 22.152344 22.152343 0 12.214844-9.9375 22.152344-22.152344 22.152344zm0-30.304687c-4.492187 0-8.152343 3.660156-8.152343 8.152343 0 4.496094 3.660156 8.152344 8.152343 8.152344 4.496094 0 8.152344-3.65625 8.152344-8.152344 0-4.492187-3.65625-8.152343-8.152344-8.152343zm0 0"/><path d="m187.664062 78.804688c-12.210937 0-22.148437-9.9375-22.148437-22.152344 0-12.210938 9.9375-22.148438 22.148437-22.148438 12.214844 0 22.152344 9.9375 22.152344 22.148438 0 12.214844-9.9375 22.152344-22.152344 22.152344zm0-30.304688c-4.492187 0-8.148437 3.65625-8.148437 8.152344s3.65625 8.152344 8.148437 8.152344c4.496094 0 8.152344-3.65625 8.152344-8.152344s-3.65625-8.152344-8.152344-8.152344zm0 0"/></g><g transform="matrix(0.09249768406152725 0 0 0.09249768406152725 66.19375428929925 215.20002473846898)" id="L1_5"><path d="M468.794,355.171c-1.707-1.718-3.897-2.57-6.563-2.57H188.145c-2.664,0-4.854,0.853-6.567,2.57    c-1.711,1.711-2.565,3.897-2.565,6.563v18.274c0,2.662,0.854,4.853,2.565,6.563c1.713,1.712,3.903,2.57,6.567,2.57h274.086    c2.666,0,4.856-0.858,6.563-2.57c1.711-1.711,2.567-3.901,2.567-6.563v-18.274C471.365,359.068,470.513,356.882,468.794,355.171z"/><path d="M30.259,85.075c-1.903-1.903-4.093-2.856-6.567-2.856s-4.661,0.953-6.563,2.856L2.852,99.353    C0.95,101.255,0,103.442,0,105.918c0,2.478,0.95,4.664,2.852,6.567L115.06,224.69L2.852,336.896C0.95,338.799,0,340.989,0,343.46    c0,2.478,0.95,4.665,2.852,6.567l14.276,14.273c1.903,1.906,4.089,2.854,6.563,2.854s4.665-0.951,6.567-2.854l133.048-133.045    c1.903-1.902,2.853-4.096,2.853-6.57c0-2.473-0.95-4.663-2.853-6.565L30.259,85.075z"/></g><g transform="matrix(0.1987258344888687 0 0 0.1987258344888687 284.6642547026702 198.66375464200974)" id="L1_6"><path d="M277.462,0.09l-27.681,20.72l-27.838,64.905h-22.386l-8.79-19.048h5.743c10.505,0,19.048-8.452,19.048-18.957V28.571     h9.524V0H196.51v28.571h9.524V47.71c0,5.248-4.271,9.433-9.524,9.433h-10.138L174.2,30.81l14.581-7.267L141.038,3.095     l-11.224,39.281c-0.305-23.371-19.386-42.29-42.829-42.29c-23.633,0-42.857,19.224-42.857,42.857     c0,14.281,7.233,27.676,19.048,35.595v7.176H51.643L50.9,89.619c-2.314,12.005-2.529,24.343-0.638,36.648l-32.486,57.905     l35.876,8.195v60.014h47.619v42.857h114.286v-66.357c33.333-23.581,52.371-61.495,52.343-101.943l0.01-17.371     c0-6.548-0.605-13.276-1.824-19.905l-0.705-3.948h-9.348l21.429-51.338V0.09z M206.033,19.138V9.614h9.524v9.524H206.033z      M189.067,85.714h-18.062l-8.657-19.048h17.929L189.067,85.714z M147.219,16.119l18.929,8.11l-4.467,2.19l14.2,30.724h-17.862     l-11.605-25.471l-4.262,2.152L147.219,16.119z M160.543,85.715h-21.176v-9.433c0-5.252,4.271-9.614,9.524-9.614h2.995v-0.001     L160.543,85.715z M141.843,44.652l5.776,12.71c-9.905,0.667-17.776,8.848-17.776,18.919v9.433h-19.048v-7.176     c9.529-6.386,15.995-16.352,18.176-27.452L141.843,44.652z M53.653,42.948c0-18.376,14.957-33.333,33.333-33.333     c18.376,0,33.333,14.957,33.333,33.333c0,11.829-6.39,22.881-16.671,28.838l-2.376,1.371v12.557h-9.524V56.352     c5.529-1.971,9.524-7.21,9.524-13.41c0-7.876-6.41-14.286-14.286-14.286c-7.876,0-14.286,6.411-14.286,14.287     c0,6.2,3.995,11.438,9.524,13.41v29.362H72.7V73.157l-2.376-1.376C60.043,65.824,53.653,54.776,53.653,42.948z M86.986,47.71     c-2.629,0-4.762-2.139-4.762-4.762c0-2.629,2.133-4.762,4.762-4.762c2.629,0,4.762,2.133,4.762,4.762S89.615,47.71,86.986,47.71z      M257.366,95.239c0.691,4.761,1.039,9.59,1.039,14.285l0.01,17.405c0.029,38.148-18.795,73.871-50.286,95.552l-2.095,1.429     v61.805h-95.238v-42.857h-47.62v-58.086l-30.862-7.043l27.876-49.7l-0.271-1.7c-1.771-10.419-1.871-21.567-0.333-31.09h3.59     h47.619H257.366z M245.714,85.714H232.3l23.738-55.343l10.557,5.257L245.714,85.714z M267.938,25.714l-5.267-2.633l5.267-3.943     V25.714z"/><path d="M96.51,123.81c-7.876,0-14.286-4.762-14.286-14.286H72.7c0,14.286,10.681,23.81,23.81,23.81     c13.129,0,23.81-9.524,23.81-23.81h-9.524C110.795,119.048,104.386,123.81,96.51,123.81z"/></g><g transform="matrix(0.13876040279865265 0 0 0.13876040279865265 158.00004634380184 307)" id="L1_7"><path d="M216.529,93.2c-61.2,0-111.2,50-111.2,111.2c0,32,14,62.8,37.6,83.6c17.6,17.6,16,55.2,15.6,55.6     c0,2,0.4,3.6,2,5.2c1.2,1.2,3.2,2,4.8,2h102c2,0,3.6-0.8,4.8-2c1.2-1.2,2-3.2,2-5.2c0-0.4-2-38,15.6-55.6     c0.4-0.4,0.8-0.8,1.2-1.2c23.2-21.2,36.8-51.2,36.8-82.4C327.729,143.2,277.729,93.2,216.529,93.2z M280.529,277.6     c-0.4,0.4-1.2,1.2-1.2,1.6c-15.6,16.8-18.4,44.4-18.8,57.6h-88.4c-0.4-13.2-3.2-42-20-59.2c-21.2-18.4-33.6-45.2-33.6-73.6     c0-54,43.6-97.6,97.6-97.6s97.6,43.6,97.6,97.6C313.729,232.4,301.729,259.2,280.529,277.6z" fill="#000000"/><path d="M216.129,121.6c-3.6,0-6.8,3.2-6.8,6.8c0,3.6,3.2,6.8,6.8,6.8c40.4,0,72.8,32.8,72.8,72.8     c0,3.6,3.2,6.8,6.8,6.8c3.6,0,6.8-3.2,6.8-6.8C302.929,160.4,264.129,121.6,216.129,121.6z" fill="#000000"/><path d="M260.529,358.4h-88.8c-9.2,0-16.8,7.6-16.8,16.8s7.6,16.8,16.8,16.8h88.4     c9.6-0.4,17.2-7.6,17.2-16.8C277.329,366,269.729,358.4,260.529,358.4z M260.529,378h-88.8c-1.6,0-3.2-1.2-3.2-3.2     s1.2-3.2,3.2-3.2h88.4c1.6,0,3.2,1.2,3.2,3.2S262.129,378,260.529,378z" fill="#000000"/><path d="M247.329,398.8h-62.4c-9.2,0-16.8,7.6-16.8,16.8s7.6,16.8,16.8,16.8h62.4     c9.2,0,16.8-7.6,16.8-16.8C264.129,406,256.529,398.8,247.329,398.8z M247.329,418.4h-62.4c-1.6,0-3.2-1.2-3.2-3.2     s1.2-3.2,3.2-3.2h62.4c1.6,0,3.2,1.2,3.2,3.2S248.929,418.4,247.329,418.4z" fill="#000000"/><path d="M216.129,60c4,0,6.8-3.2,6.8-6.8V6.8c0-3.6-3.2-6.8-6.8-6.8c-3.6,0-6.8,3.2-6.8,6.8v46.4     C209.329,56.8,212.529,60,216.129,60z" fill="#000000"/><path d="M329.329,34.4c-3.2-2.4-7.2-1.2-9.2,1.6l-25.6,38.4c-2.4,3.2-1.6,7.6,1.6,9.6     c1.2,0.8,2.4,1.2,3.6,1.2c2.4,0,4.4-1.2,5.6-3.2l25.6-38.4C333.329,40.8,332.529,36.4,329.329,34.4z" fill="#000000"/><path d="M134.929,83.6c1.2,0,2.4-0.4,3.6-1.2c3.2-2,4-6.4,2-9.6l-24.8-38.8c-2-3.2-6.4-4-9.6-2     s-4,6.4-2,9.6l24.8,38.8C130.529,82.8,132.529,83.6,134.929,83.6z" fill="#000000"/><path d="M86.529,126l-40.4-22c-3.2-1.6-7.6-0.4-9.2,2.8c-2,3.2-0.8,7.6,2.8,9.2l40.4,22     c1.2,0.4,2,0.8,3.2,0.8c2.4,0,4.8-1.2,6-3.6C90.929,132,89.729,127.6,86.529,126z" fill="#000000"/><path d="M395.729,106.8c-1.6-3.2-6-4.4-9.2-2.8l-40.8,22c-3.2,1.6-4.4,6-2.8,9.2c1.2,2.4,3.6,3.6,6,3.6     c1.2,0,2.4-0.4,3.2-0.8l40.8-22C396.129,114.4,397.329,110,395.729,106.8z" fill="#000000"/></g><g transform="matrix(0.10772329568862915 0 0 0.10772329568862915 261.4227771759033 26.42277717590332)" id="L1_8"><path d="M268.662,243.351c-3.91-3.91-10.24-3.91-14.15,0c-3.9,3.9-3.9,10.23,0,14.14c3.91,3.9,10.24,3.9,14.15,0    C272.562,253.581,272.562,247.251,268.662,243.351z"/><path d="M395.933,116.07c-19.54-19.539-51.172-19.54-70.713,0c-19.489,19.489-19.49,51.209,0.003,70.714    c19.496,19.484,51.216,19.492,70.71-0.002C415.471,167.244,415.475,135.611,395.933,116.07z M381.791,172.639    c-11.693,11.694-30.727,11.694-42.426,0.002c-11.695-11.702-11.696-30.736-0.002-42.429c11.723-11.723,30.703-11.725,42.428,0    C393.514,141.934,393.516,160.915,381.791,172.639z"/><path d="M509.07,2.929c-1.964-1.963-4.644-3.027-7.43-2.922c-2.261,0.081-56.096,2.245-120.091,24.864    c-51.28,18.106-94.023,44.029-127.042,77.049c-7.399,7.399-14.599,15.245-21.488,23.396c-32.648-19.218-58.81-13.192-75.349-4.341    c-38.081,20.38-61.652,75.716-61.652,115.296c0.003,4.044,2.44,7.691,6.176,9.238c1.237,0.513,2.537,0.762,3.825,0.762    c2.603,0,5.16-1.017,7.073-2.929c20.083-20.083,44.854-18.827,52.946-17.763l3.502,3.502c-6.892,16.4-12.444,32.708-16.516,48.569    c-1.47,5.74-0.974,11.814,1.211,17.37c-9.628,4.437-18.917,10.952-27.005,19.04c-25.741,25.742-30.968,88.476-31.178,91.134    c-0.23,2.917,0.828,5.789,2.897,7.858c1.883,1.882,4.43,2.929,7.07,2.929c0.262,0,0.525-0.01,0.788-0.031    c2.658-0.209,65.394-5.436,91.135-31.177c8.085-8.085,14.599-17.373,19.036-26.999c5.882,2.313,11.936,2.598,17.38,1.203    c15.854-4.071,32.16-9.621,48.562-16.514l3.502,3.502c1.063,8.093,2.319,32.864-17.763,52.945    c-2.859,2.86-3.715,7.161-2.167,10.897c1.547,3.737,5.193,6.173,9.238,6.173c39.58,0,94.915-23.571,115.295-61.652    c8.851-16.537,14.877-42.699-4.341-75.348c8.147-6.886,15.994-14.086,23.396-21.488c33.02-33.02,58.942-75.763,77.048-127.039    c22.62-63.998,24.783-117.834,24.864-120.094C512.092,7.584,511.033,4.893,509.07,2.929z M118.376,214.762    c6.212-30.063,24.255-63.052,48.735-76.154c16.359-8.754,34.24-7.896,53.252,2.511c-16.197,21.302-30.278,44.252-42.015,68.487    c-0.149-0.092-1.949-2.355-5.293-3.109C171.68,206.186,145.221,200.495,118.376,214.762z M183.8,370.63    c-13.75,13.75-46.005,21.002-66.392,23.963c2.962-20.388,10.215-52.642,23.964-66.391c7.7-7.7,16.628-13.538,25.602-16.826    l33.652,33.652C197.338,354.002,191.501,362.93,183.8,370.63z M229.39,339.603c-2.894,0.741-6.246-0.347-8.738-2.835    c-12.937-12.937-17.998-17.998-19.586-19.585c-2.912-2.912-10.053-10.053-25.826-25.827c-2.494-2.499-3.582-5.85-2.843-8.739    c3.203-12.474,7.392-25.272,12.486-38.193l82.695,82.695C254.655,332.214,241.859,336.402,229.39,339.603z M373.394,344.891    c-13.102,24.479-46.09,42.523-76.152,48.734c9.585-18.037,11.698-40.998,8.196-54.921c-0.813-3.234-2.923-4.86-3.041-5.051    c24.233-11.737,47.182-25.818,68.486-42.015C381.29,310.652,382.147,328.535,373.394,344.891z M395.94,243.35    c-9.011,9.01-18.714,17.715-28.84,25.872c-24.342,19.6-51.134,36.202-79.718,49.418l-94.02-94.018    c13.216-28.586,29.818-55.378,49.416-79.717c8.164-10.133,16.868-19.837,25.875-28.843    c29.625-29.626,67.859-53.204,113.671-70.176l83.792,83.792C449.146,175.489,425.568,213.723,395.94,243.35z M473.311,108.587    l-69.896-69.896c38.081-11.828,71.21-16.257,87.746-17.849C489.568,37.381,485.138,70.51,473.311,108.587z"/><path d="M240.371,413.049c-3.907-3.905-10.239-3.903-14.143,0.002l-28.28,28.29c-3.904,3.906-3.903,10.238,0.002,14.142    c3.907,3.904,10.239,3.904,14.143-0.002l28.28-28.29C244.277,423.285,244.276,416.953,240.371,413.049z"/><path d="M98.954,271.631c-3.904-3.906-10.235-3.906-14.142-0.002l-28.29,28.28c-3.906,3.904-3.907,10.236-0.003,14.142    c3.903,3.904,10.234,3.908,14.142,0.002l28.29-28.28C102.857,281.869,102.858,275.537,98.954,271.631z"/><path d="M169.663,427.2c-3.903-3.905-10.236-3.905-14.142-0.001l-67.74,67.73c-3.906,3.905-3.906,10.237-0.001,14.142    c3.903,3.905,10.236,3.907,14.142,0.001l67.74-67.73C173.568,437.437,173.568,431.105,169.663,427.2z"/><path d="M89.663,427.2c-3.904-3.905-10.237-3.905-14.142-0.001l-67.74,67.73c-3.906,3.905-3.906,10.237-0.001,14.142    c3.903,3.905,10.236,3.907,14.142,0.001l67.74-67.73C93.568,437.437,93.568,431.105,89.663,427.2z"/><path d="M84.802,342.338c-3.904-3.904-10.237-3.904-14.142,0.001l-67.73,67.74c-3.905,3.906-3.905,10.237,0.001,14.143    c3.905,3.905,10.237,3.905,14.142-0.001l67.73-67.74C88.708,352.575,88.708,346.244,84.802,342.338z"/><path d="M311.083,200.919c-3.906-3.905-10.236-3.905-14.143,0l-14.14,14.14c-3.905,3.905-3.905,10.237,0,14.143    c3.906,3.905,10.237,3.905,14.143,0l14.14-14.14C314.988,211.157,314.988,204.825,311.083,200.919z"/></g><path d="M311.175,115.775c-1.355-10.186-1.546-27.73,7.915-33.621c0.169-0.108,0.295-0.264,0.443-0.398    c7.735-2.474,13.088-5.946,8.886-10.618l-114.102-34.38L29.56,62.445c0,0-21.157,3.024-19.267,35.894    c1.026,17.89,6.637,26.676,11.544,31l-15.161,4.569c-4.208,4.672,1.144,8.145,8.88,10.615c0.147,0.138,0.271,0.293,0.443,0.401    c9.455,5.896,9.273,23.438,7.913,33.626c-33.967,9.645-21.774,12.788-21.774,12.788l7.451,1.803    c-5.241,4.736-10.446,13.717-9.471,30.75c1.891,32.864,19.269,35.132,19.269,35.132l120.904,39.298l182.49-44.202    c0,0,12.197-3.148-21.779-12.794c-1.366-10.172-1.556-27.712,7.921-33.623c0.174-0.105,0.301-0.264,0.442-0.396    c7.736-2.474,13.084-5.943,8.881-10.615l-7.932-2.395c5.29-3.19,13.236-11.527,14.481-33.183    c0.859-14.896-3.027-23.62-7.525-28.756l15.678-3.794C332.949,128.569,345.146,125.421,311.175,115.775z M158.533,115.354    l30.688-6.307l103.708-21.312l15.451-3.178c-4.937,9.036-4.73,21.402-3.913,29.35c0.179,1.798,0.385,3.44,0.585,4.688    L288.14,122.8l-130.897,32.563L158.533,115.354z M26.71,147.337l15.449,3.178l99.597,20.474l8.701,1.782l0,0l0,0l26.093,5.363    l1.287,40.01L43.303,184.673l-13.263-3.296c0.195-1.25,0.401-2.89,0.588-4.693C31.44,168.742,31.651,156.373,26.71,147.337z     M20.708,96.757c-0.187-8.743,1.371-15.066,4.52-18.28c2.004-2.052,4.369-2.479,5.991-2.479c0.857,0,1.474,0.119,1.516,0.119    l79.607,25.953l39.717,12.949l-1.303,40.289L39.334,124.07l-5.88-1.647c-0.216-0.061-0.509-0.103-0.735-0.113    C32.26,122.277,21.244,121.263,20.708,96.757z M140.579,280.866L23.28,247.98c-0.217-0.063-0.507-0.105-0.733-0.116    c-0.467-0.031-11.488-1.044-12.021-25.544c-0.19-8.754,1.376-15.071,4.519-18.288c2.009-2.052,4.375-2.479,5.994-2.479    c0.859,0,1.474,0.115,1.519,0.115c0,0,0.005,0,0,0l119.316,38.908L140.579,280.866z M294.284,239.459    c0.185,1.804,0.391,3.443,0.591,4.693l-147.812,36.771l1.292-40.01l31.601-6.497l4.667,1.129l17.492-5.685l80.631-16.569    l15.457-3.18C293.261,219.146,293.466,231.517,294.284,239.459z M302.426,185.084c-0.269,0.006-0.538,0.042-0.791,0.122    l-11.148,3.121l-106.148,29.764l-1.298-40.289l34.826-11.359l84.327-27.501c0.011-0.005,4.436-0.988,7.684,2.315    c3.144,3.214,4.704,9.537,4.52,18.28C313.848,184.035,302.827,185.053,302.426,185.084z" transform="matrix(0.1599932610988617 0 0 0.1599932610988617 159.19396533071995 103.19470293853965)" id="L1_9"/><g transform="matrix(0.8180476427078247 0 0 0.8180476427078247 4.0931513379828175 112.09252214431763)" id="L1_11"><path d="M51.426,44.336c-0.429-4.107-3.852-7.332-7.953-7.332c-2.564,0-4.984,1.286-6.48,3.402   c-0.291-0.051-0.586-0.076-0.883-0.076c-2.32,0-4.381,1.577-5.066,3.813c-1.907,1.131-3.116,3.241-3.116,5.502   c0,3.507,2.785,6.359,6.208,6.359h10.774c0.06,0,0.118-0.004,0.171-0.008c0.062,0.004,0.124,0.008,0.188,0.008h4.31   c3.225,0,5.849-2.687,5.849-5.989C55.427,47.415,53.785,45.142,51.426,44.336z M49.578,54.004l-4.352-0.003l-0.17-0.006   l-10.922,0.009c-2.32,0-4.208-1.956-4.208-4.359c0-1.665,0.949-3.21,2.417-3.935l0.435-0.214l0.102-0.475   c0.331-1.56,1.689-2.691,3.229-2.691c0.345,0,0.688,0.057,1.02,0.168l0.777,0.261l0.408-0.711c1.096-1.906,3.024-3.044,5.158-3.044   c3.265,0,5.955,2.747,5.998,6.123l0.011,0.813l0.799,0.155c1.823,0.354,3.146,2.002,3.146,3.919   C53.427,52.214,51.7,54.004,49.578,54.004z"/><path d="M25.577,41c-0.827,0-1.637-0.016-2.432-0.044c-0.486-0.018-0.955-0.049-1.429-0.077c-0.293-0.017-0.595-0.028-0.883-0.049   c-0.63-0.045-1.242-0.104-1.847-0.167c-0.114-0.012-0.233-0.02-0.346-0.032c-0.693-0.076-1.368-0.163-2.026-0.259   c-0.017-0.002-0.034-0.004-0.051-0.007c-3.385-0.5-6.29-1.263-8.561-2.169c-0.012-0.004-0.024-0.009-0.036-0.014   c-0.419-0.168-0.812-0.342-1.186-0.519c-0.043-0.021-0.089-0.041-0.132-0.062c-0.336-0.162-0.647-0.328-0.945-0.497   c-0.07-0.04-0.144-0.079-0.212-0.12c-0.259-0.152-0.495-0.307-0.721-0.463c-0.086-0.06-0.175-0.12-0.257-0.18   c-0.191-0.141-0.362-0.283-0.526-0.426c-0.089-0.079-0.179-0.157-0.26-0.236c-0.134-0.13-0.252-0.261-0.363-0.392   c-0.078-0.092-0.153-0.185-0.219-0.277c-0.088-0.123-0.163-0.246-0.231-0.369c-0.054-0.099-0.102-0.198-0.143-0.297   c-0.049-0.121-0.088-0.242-0.116-0.362c-0.038-0.162-0.079-0.325-0.079-0.485v-8.207c0.028,0.026,0.063,0.051,0.092,0.077   c0.218,0.191,0.44,0.382,0.69,0.566C7.126,28.786,14.659,31,25.577,31c10.872,0,18.386-2.196,22.169-5.028   c0.302-0.22,0.574-0.447,0.83-0.678l0.001,0V34c0,0.553,0.447,1,1,1s1-0.447,1-1V22v-0.5v-12V9c0-0.182-0.062-0.343-0.146-0.49   C49.273,4.22,40.654,0,25.577,0C10.5,0,1.881,4.22,0.724,8.51C0.639,8.657,0.577,8.818,0.577,9v0.5v12V22v11.5V34v12   c0,0.161,0.042,0.313,0.115,0.448c1.139,4.833,10.691,7.68,19.81,8.364c0.025,0.002,0.051,0.003,0.076,0.003   c0.519,0,0.957-0.399,0.996-0.925c0.041-0.551-0.371-1.031-0.922-1.072C9.538,51.984,3.062,48.6,2.609,45.838   c-0.008-0.045-0.019-0.088-0.032-0.131v-8.414c0.028,0.026,0.063,0.051,0.092,0.077c0.218,0.191,0.44,0.382,0.69,0.566   C7.126,40.786,14.659,43,25.577,43c0.553,0,1-0.447,1-1S26.13,41,25.577,41z M3.179,13.797c0.3,0.236,0.624,0.469,0.975,0.696   c0.073,0.047,0.155,0.093,0.231,0.14c0.294,0.183,0.605,0.362,0.932,0.538c0.121,0.065,0.242,0.129,0.367,0.193   c0.365,0.186,0.748,0.366,1.151,0.542c0.066,0.029,0.126,0.059,0.193,0.087c0.469,0.199,0.967,0.389,1.485,0.572   c0.143,0.051,0.293,0.099,0.44,0.149c0.412,0.139,0.838,0.272,1.279,0.401c0.159,0.046,0.315,0.094,0.478,0.139   c0.585,0.162,1.189,0.316,1.823,0.458c0.087,0.02,0.181,0.037,0.269,0.056c0.559,0.122,1.139,0.235,1.735,0.34   c0.202,0.036,0.407,0.07,0.613,0.104c0.567,0.093,1.151,0.179,1.75,0.257c0.154,0.02,0.301,0.042,0.457,0.062   c0.744,0.09,1.514,0.167,2.305,0.233c0.195,0.016,0.398,0.028,0.596,0.042c0.633,0.046,1.28,0.084,1.942,0.114   c0.241,0.011,0.481,0.022,0.727,0.03c0.863,0.03,1.741,0.05,2.65,0.05s1.788-0.021,2.65-0.05c0.245-0.008,0.485-0.02,0.727-0.03   c0.662-0.03,1.309-0.068,1.942-0.114c0.198-0.015,0.4-0.026,0.596-0.042c0.791-0.065,1.561-0.143,2.305-0.233   c0.156-0.019,0.303-0.042,0.457-0.062c0.599-0.078,1.182-0.164,1.75-0.257c0.206-0.034,0.411-0.068,0.613-0.104   c0.596-0.105,1.176-0.218,1.735-0.34c0.088-0.019,0.182-0.036,0.269-0.056c0.634-0.142,1.238-0.296,1.823-0.458   c0.163-0.045,0.319-0.092,0.478-0.139c0.441-0.128,0.867-0.262,1.279-0.401c0.147-0.05,0.297-0.098,0.44-0.149   c0.518-0.184,1.017-0.374,1.485-0.572c0.067-0.028,0.127-0.059,0.193-0.087c0.403-0.176,0.786-0.356,1.151-0.542   c0.125-0.064,0.247-0.128,0.367-0.193c0.327-0.175,0.638-0.354,0.932-0.538c0.076-0.047,0.158-0.093,0.231-0.14   c0.351-0.227,0.675-0.459,0.975-0.696c0.075-0.06,0.142-0.12,0.215-0.18c0.13-0.108,0.267-0.215,0.387-0.324V21.5   c0,0.161-0.041,0.323-0.079,0.485c-0.028,0.121-0.067,0.241-0.116,0.362c-0.04,0.099-0.089,0.198-0.143,0.297   c-0.067,0.123-0.142,0.246-0.231,0.369c-0.066,0.092-0.141,0.185-0.219,0.277c-0.111,0.131-0.229,0.262-0.363,0.392   c-0.081,0.079-0.17,0.157-0.26,0.236c-0.164,0.143-0.335,0.285-0.526,0.426c-0.082,0.061-0.17,0.12-0.257,0.18   c-0.226,0.156-0.462,0.311-0.721,0.463c-0.068,0.041-0.141,0.08-0.212,0.12c-0.298,0.168-0.609,0.334-0.945,0.497   c-0.043,0.021-0.088,0.041-0.132,0.062c-0.375,0.177-0.767,0.351-1.186,0.519c-0.012,0.005-0.024,0.009-0.036,0.014   c-2.271,0.907-5.176,1.67-8.561,2.169c-0.017,0.002-0.034,0.004-0.051,0.007c-0.658,0.097-1.333,0.184-2.026,0.259   c-0.113,0.012-0.232,0.02-0.346,0.032c-0.605,0.063-1.217,0.121-1.847,0.167c-0.288,0.021-0.59,0.032-0.883,0.049   c-0.474,0.028-0.943,0.059-1.429,0.077C27.214,28.984,26.404,29,25.577,29s-1.637-0.016-2.432-0.044   c-0.486-0.018-0.955-0.049-1.429-0.077c-0.293-0.017-0.595-0.028-0.883-0.049c-0.63-0.045-1.242-0.104-1.847-0.167   c-0.114-0.012-0.233-0.02-0.346-0.032c-0.693-0.076-1.368-0.163-2.026-0.259c-0.017-0.002-0.034-0.004-0.051-0.007   c-3.385-0.5-6.29-1.263-8.561-2.169c-0.012-0.004-0.024-0.009-0.036-0.014c-0.419-0.168-0.812-0.342-1.186-0.519   c-0.043-0.021-0.089-0.041-0.132-0.062c-0.336-0.162-0.647-0.328-0.945-0.497c-0.07-0.04-0.144-0.079-0.212-0.12   c-0.259-0.152-0.495-0.307-0.721-0.463c-0.086-0.06-0.175-0.12-0.257-0.18c-0.191-0.141-0.362-0.283-0.526-0.426   c-0.089-0.079-0.179-0.157-0.26-0.236c-0.134-0.13-0.252-0.261-0.363-0.392c-0.078-0.092-0.153-0.185-0.219-0.277   c-0.088-0.123-0.163-0.246-0.231-0.369c-0.054-0.099-0.102-0.198-0.143-0.297c-0.049-0.121-0.088-0.242-0.116-0.362   c-0.038-0.162-0.079-0.325-0.079-0.485v-8.207c0.12,0.109,0.257,0.216,0.387,0.324C3.036,13.677,3.103,13.737,3.179,13.797z    M25.577,2c13.555,0,23,3.952,23,7.5s-9.445,7.5-23,7.5s-23-3.952-23-7.5S12.022,2,25.577,2z"/></g><g transform="matrix(0.11719024926424026 0 0 0.11719024926424026 161 198.99999859806587)" id="L1_13"><path d="M394.655,202.654H95.988c-17.643,0-32,14.357-32,32v21.333c0,76.117,42.048,145.152,109.717,180.16    c5.227,2.688,11.669,0.661,14.379-4.587c2.688-5.227,0.661-11.669-4.587-14.379c-60.544-31.317-98.176-93.077-98.176-161.195    v-21.333c0-5.888,4.779-10.667,10.667-10.667h298.667c5.888,0,10.667,4.779,10.667,10.667v21.333    c0,68.117-37.632,129.877-98.197,161.173c-5.248,2.709-7.275,9.152-4.587,14.379c1.899,3.669,5.632,5.781,9.493,5.781    c1.664,0,3.328-0.384,4.885-1.195c67.691-34.987,109.739-104,109.739-180.139v-21.333    C426.655,217.011,412.297,202.654,394.655,202.654z"/><path d="M489.865,422.558c-1.664-3.989-5.547-6.592-9.856-6.592H10.676c-4.309,0-8.192,2.603-9.856,6.592    c-1.664,3.989-0.747,8.576,2.304,11.627l23.915,23.936c14.123,14.101,32.853,21.867,52.8,21.867h330.965    c19.947,0,38.699-7.765,52.843-21.867l23.915-23.936C490.612,431.134,491.529,426.547,489.865,422.558z M448.543,443.038    c-10.069,10.069-23.488,15.616-37.717,15.616H79.839c-14.229,0-27.648-5.547-37.717-15.616l-5.717-5.717H454.26L448.543,443.038z"/><path d="M491.359,253.022c-28.736-18.475-74.645,1.579-79.787,3.904c-5.355,2.453-7.744,8.768-5.291,14.144    c2.453,5.376,8.747,7.744,14.144,5.291c10.283-4.672,43.264-15.744,59.392-5.355c7.275,4.672,10.837,13.739,10.837,27.648    c0,42.709-86.144,68.523-119.403,74.88l-7.552,1.493c-5.781,1.131-9.536,6.741-8.405,12.523c1.003,5.077,5.461,8.597,10.453,8.597    c0.683,0,1.365-0.064,2.069-0.213l7.488-1.472c5.589-1.067,136.683-26.773,136.683-95.808    C511.988,277.193,505.034,261.854,491.359,253.022z"/><path d="M328.372,113.31c17.344-21.675,17.344-55.616,0-77.291c-3.691-4.608-10.368-5.376-14.997-1.664    c-4.608,3.691-5.355,10.389-1.664,14.997c10.987,13.717,10.987,36.907-0.021,50.667c-17.365,21.675-17.365,55.616,0,77.291    c2.112,2.645,5.205,4.011,8.341,4.011c2.325,0,4.693-0.768,6.656-2.347c4.608-3.691,5.355-10.411,1.664-14.997    C317.343,150.259,317.343,127.07,328.372,113.31z"/><path d="M264.287,113.31c17.365-21.675,17.365-55.616,0-77.291c-3.669-4.608-10.389-5.355-14.997-1.664    c-4.608,3.691-5.355,10.411-1.664,14.997c11.008,13.717,11.008,36.907-0.021,50.667c-17.344,21.675-17.344,55.616,0,77.291    c2.112,2.645,5.205,4.011,8.341,4.011c2.325,0,4.672-0.768,6.656-2.347c4.608-3.691,5.355-10.389,1.664-14.997    C253.279,150.259,253.279,127.07,264.287,113.31z"/><path d="M200.372,113.331c17.344-21.675,17.344-55.616,0-77.291c-3.669-4.608-10.368-5.376-14.997-1.664    c-4.587,3.669-5.333,10.389-1.664,14.976c10.987,13.717,10.987,36.907-0.021,50.667c-17.365,21.675-17.365,55.616,0,77.291    c2.112,2.645,5.205,4.011,8.341,4.011c2.325,0,4.693-0.768,6.656-2.325c4.608-3.691,5.355-10.411,1.664-14.997    C189.343,150.259,189.343,127.091,200.372,113.331z"/></g><g transform="matrix(0.1028229147195816 0 0 0.1028229147195816 78.4448469651395 28.443109214305878)" id="L1_20"><path d="M475.299,106.918l-12.047-3.765c-3.012-0.753-6.024-1.506-9.788-1.506c-13.553,0-25.6,9.035-30.118,21.835l-6.776,20.329     v-15.059V128c0-2.259-1.506-4.518-3.012-6.024L290.076,2.259C288.57,0.753,286.311,0,284.805,0H43.111     c-4.518,0-7.529,3.012-7.529,7.529v23.341H7.723c-4.518,0-7.529,3.012-7.529,7.529v451.012c0,4.518,3.012,7.529,7.529,7.529     h365.929c4.518,0,7.529-3.012,7.529-7.529v-23.341h27.859c4.518,0,7.529-3.012,7.529-7.529V356.894l21.082-28.612l0.753-2.259     l56.471-179.953C500.899,129.506,491.864,112.188,475.299,106.918z M292.334,25.6l98.635,94.871h-98.635V25.6z M366.123,481.882     H15.252V45.929h20.329v412.612c0,4.518,3.012,7.529,7.529,7.529h323.012V481.882z M402.264,451.012h-0.753H50.64V15.059h226.635     V128c0,4.518,3.012,7.529,7.529,7.529h117.459V192l-35.388,111.435v2.259l1.506,95.624c0,3.012,2.259,6.024,5.271,6.776     c3.012,0.753,6.776,0,8.282-3.012l20.329-27.106V451.012z M382.687,377.976l-1.506-62.494l37.647,12.047L382.687,377.976z      M481.323,141.553l-54.212,172.424l-43.671-14.306L437.652,128c3.012-8.282,12.047-13.553,20.329-10.541l12.047,3.765     C479.064,123.482,484.334,133.271,481.323,141.553z"/><path d="M101.84,135.529h108.424c4.518,0,7.529-3.012,7.529-7.529V51.2c0-4.518-3.012-7.529-7.529-7.529H101.84     c-4.518,0-7.529,3.012-7.529,7.529V128C94.311,131.765,98.076,135.529,101.84,135.529z M109.37,58.729h93.365v61.741H109.37     V58.729z"/><path d="M86.782,206.306h228.894c4.518,0,7.529-3.012,7.529-7.529c0-4.518-3.012-7.529-7.529-7.529H86.782     c-4.518,0-7.529,3.012-7.529,7.529C79.252,203.294,82.264,206.306,86.782,206.306z"/><path d="M86.782,261.271h228.894c4.518,0,7.529-3.012,7.529-7.529s-3.012-7.529-7.529-7.529H86.782     c-4.518,0-7.529,3.012-7.529,7.529S82.264,261.271,86.782,261.271z"/><path d="M86.782,316.235h228.894c4.518,0,7.529-3.012,7.529-7.529s-3.012-7.529-7.529-7.529H86.782     c-4.518,0-7.529,3.012-7.529,7.529S82.264,316.235,86.782,316.235z"/><path d="M322.452,363.671c0-4.518-3.012-7.529-7.529-7.529H86.782c-4.518,0-7.529,3.012-7.529,7.529s3.012,7.529,7.529,7.529     h228.894C319.44,371.2,322.452,367.435,322.452,363.671z"/><path d="M347.299,411.106H233.605c-4.518,0-7.529,3.012-7.529,7.529s3.012,7.529,7.529,7.529h112.941     c4.518,0,7.529-3.012,7.529-7.529S351.064,411.106,347.299,411.106z"/></g></defs><g fi:class="KUsePattern" opacity="1"><pattern id="pattern_L1_3" width="350" height="350" patternUnits="userSpaceOnUse"><use xlink:href="#L1_3" x="-350" y="-350"/><use xlink:href="#L1_3" x="0" y="-350"/><use xlink:href="#L1_3" x="350" y="-350"/><use xlink:href="#L1_3" x="-350" y="0"/><use xlink:href="#L1_3" x="0" y="0"/><use xlink:href="#L1_3" x="350" y="0"/><use xlink:href="#L1_3" x="-350" y="350"/><use xlink:href="#L1_3" x="0" y="350"/><use xlink:href="#L1_3" x="350" y="350"/></pattern><rect x="0" y="0" width="100%" height="100%" fill="url(#pattern_L1_3)"/></g><g fi:class="KUsePattern" opacity="1"><pattern id="pattern_L1_5" width="350" height="350" patternUnits="userSpaceOnUse"><use xlink:href="#L1_5" x="-350" y="-350"/><use xlink:href="#L1_5" x="0" y="-350"/><use xlink:href="#L1_5" x="350" y="-350"/><use xlink:href="#L1_5" x="-350" y="0"/><use xlink:href="#L1_5" x="0" y="0"/><use xlink:href="#L1_5" x="350" y="0"/><use xlink:href="#L1_5" x="-350" y="350"/><use xlink:href="#L1_5" x="0" y="350"/><use xlink:href="#L1_5" x="350" y="350"/></pattern><rect x="0" y="0" width="100%" height="100%" fill="url(#pattern_L1_5)"/></g><g fi:class="KUsePattern" opacity="1"><pattern id="pattern_L1_6" width="350" height="350" patternUnits="userSpaceOnUse"><use xlink:href="#L1_6" x="-350" y="-350"/><use xlink:href="#L1_6" x="0" y="-350"/><use xlink:href="#L1_6" x="350" y="-350"/><use xlink:href="#L1_6" x="-350" y="0"/><use xlink:href="#L1_6" x="0" y="0"/><use xlink:href="#L1_6" x="350" y="0"/><use xlink:href="#L1_6" x="-350" y="350"/><use xlink:href="#L1_6" x="0" y="350"/><use xlink:href="#L1_6" x="350" y="350"/></pattern><rect x="0" y="0" width="100%" height="100%" fill="url(#pattern_L1_6)"/></g><g fi:class="KUsePattern" opacity="1"><pattern id="pattern_L1_7" width="350" height="350" patternUnits="userSpaceOnUse"><use xlink:href="#L1_7" x="-350" y="-350"/><use xlink:href="#L1_7" x="0" y="-350"/><use xlink:href="#L1_7" x="350" y="-350"/><use xlink:href="#L1_7" x="-350" y="0"/><use xlink:href="#L1_7" x="0" y="0"/><use xlink:href="#L1_7" x="350" y="0"/><use xlink:href="#L1_7" x="-350" y="350"/><use xlink:href="#L1_7" x="0" y="350"/><use xlink:href="#L1_7" x="350" y="350"/></pattern><rect x="0" y="0" width="100%" height="100%" fill="url(#pattern_L1_7)"/></g><g fi:class="KUsePattern" opacity="1"><pattern id="pattern_L1_8" width="350" height="350" patternUnits="userSpaceOnUse"><use xlink:href="#L1_8" x="-350" y="-350"/><use xlink:href="#L1_8" x="0" y="-350"/><use xlink:href="#L1_8" x="350" y="-350"/><use xlink:href="#L1_8" x="-350" y="0"/><use xlink:href="#L1_8" x="0" y="0"/><use xlink:href="#L1_8" x="350" y="0"/><use xlink:href="#L1_8" x="-350" y="350"/><use xlink:href="#L1_8" x="0" y="350"/><use xlink:href="#L1_8" x="350" y="350"/></pattern><rect x="0" y="0" width="100%" height="100%" fill="url(#pattern_L1_8)"/></g><g fi:class="KUsePattern" opacity="1"><pattern id="pattern_L1_9" width="350" height="350" patternUnits="userSpaceOnUse"><use xlink:href="#L1_9" x="-350" y="-350"/><use xlink:href="#L1_9" x="0" y="-350"/><use xlink:href="#L1_9" x="350" y="-350"/><use xlink:href="#L1_9" x="-350" y="0"/><use xlink:href="#L1_9" x="0" y="0"/><use xlink:href="#L1_9" x="350" y="0"/><use xlink:href="#L1_9" x="-350" y="350"/><use xlink:href="#L1_9" x="0" y="350"/><use xlink:href="#L1_9" x="350" y="350"/></pattern><rect x="0" y="0" width="100%" height="100%" fill="url(#pattern_L1_9)"/></g><g fi:class="KUsePattern" opacity="1"><pattern id="pattern_L1_11" width="350" height="350" patternUnits="userSpaceOnUse"><use xlink:href="#L1_11" x="-350" y="-350"/><use xlink:href="#L1_11" x="0" y="-350"/><use xlink:href="#L1_11" x="350" y="-350"/><use xlink:href="#L1_11" x="-350" y="0"/><use xlink:href="#L1_11" x="0" y="0"/><use xlink:href="#L1_11" x="350" y="0"/><use xlink:href="#L1_11" x="-350" y="350"/><use xlink:href="#L1_11" x="0" y="350"/><use xlink:href="#L1_11" x="350" y="350"/></pattern><rect x="0" y="0" width="100%" height="100%" fill="url(#pattern_L1_11)"/></g><g fi:class="KUsePattern" opacity="1"><pattern id="pattern_L1_13" width="350" height="350" patternUnits="userSpaceOnUse"><use xlink:href="#L1_13" x="-350" y="-350"/><use xlink:href="#L1_13" x="0" y="-350"/><use xlink:href="#L1_13" x="350" y="-350"/><use xlink:href="#L1_13" x="-350" y="0"/><use xlink:href="#L1_13" x="0" y="0"/><use xlink:href="#L1_13" x="350" y="0"/><use xlink:href="#L1_13" x="-350" y="350"/><use xlink:href="#L1_13" x="0" y="350"/><use xlink:href="#L1_13" x="350" y="350"/></pattern><rect x="0" y="0" width="100%" height="100%" fill="url(#pattern_L1_13)"/></g><g fi:class="KUsePattern"><pattern id="pattern_L1_20" width="350" height="350" patternUnits="userSpaceOnUse"><use xlink:href="#L1_20" x="-350" y="-350"/><use xlink:href="#L1_20" x="0" y="-350"/><use xlink:href="#L1_20" x="350" y="-350"/><use xlink:href="#L1_20" x="-350" y="0"/><use xlink:href="#L1_20" x="0" y="0"/><use xlink:href="#L1_20" x="350" y="0"/><use xlink:href="#L1_20" x="-350" y="350"/><use xlink:href="#L1_20" x="0" y="350"/><use xlink:href="#L1_20" x="350" y="350"/></pattern><rect x="0" y="0" width="100%" height="100%" fill="url(#pattern_L1_20)"/></g></svg>