<?xml version="1.0" encoding="iso-8859-1"?>
<!-- Generator: Adobe Illustrator 19.0.0, SVG Export Plug-In . SVG Version: 6.00 Build 0)  -->
<svg xmlns="http://www.w3.org/2000/svg" xmlns:xlink="http://www.w3.org/1999/xlink" version="1.1" id="Layer_1" x="0px" y="0px" viewBox="0 0 511.995 511.995" style="enable-background:new 0 0 511.995 511.995;" xml:space="preserve" width="512" height="512">
<g id="XMLID_1694_">
	<g id="XMLID_2975_">
		<g id="XMLID_277_">
			<path id="XMLID_278_" style="fill:#E2FFFE;" d="M504.498,62.316v398.14c0,5.008-4.06,9.068-9.068,9.068H16.565     c-5.008,0-9.068-4.06-9.068-9.068V62.305c0-10.955,8.881-19.836,19.836-19.836h457.329     C495.611,42.469,504.498,51.355,504.498,62.316z"/>
			<path id="XMLID_279_" style="fill:#B0D1CF;" d="M504.498,62.316v70.932h-497V62.316c0-10.96,8.886-19.847,19.836-19.847h457.329     C495.611,42.469,504.498,51.355,504.498,62.316z"/>
			<path id="XMLID_1613_" style="fill:#718987;" d="M504.495,117.383H7.5V62.31c0-10.956,8.882-19.838,19.838-19.838h457.318     c10.956,0,19.838,8.882,19.838,19.838V117.383z"/>
		</g>
	</g>
	<g id="XMLID_104_">
		<path id="XMLID_155_" d="M484.657,34.972h-56.351c-4.142,0-7.5,3.358-7.5,7.5s3.358,7.5,7.5,7.5h56.351    c6.803,0,12.338,5.535,12.338,12.338v47.512c-39.873-0.321-78.469-0.304-117.703,0.061c-4.142,0.038-7.468,3.427-7.43,7.569    c0.038,4.118,3.388,7.431,7.498,7.43c0.023,0,0.048,0,0.071,0c39.184-0.365,77.734-0.381,117.563-0.06v335.633    c0,0.864-0.703,1.567-1.568,1.567H114.973c-4.142,0-7.5,3.358-7.5,7.5s3.358,7.5,7.5,7.5h380.454    c9.136,0,16.568-7.432,16.568-16.567V62.311C511.995,47.236,499.731,34.972,484.657,34.972z"/>
		<path id="XMLID_589_" d="M84.355,462.023H16.568c-0.865,0-1.568-0.703-1.568-1.567V124.861    c110.508-0.36,221.983-0.354,331.478,0.022c0.009,0,0.018,0,0.026,0c4.13,0,7.485-3.341,7.5-7.474    c0.014-4.142-3.332-7.512-7.474-7.526c-109.513-0.376-221.006-0.382-331.53-0.022v-47.55c0-6.803,5.535-12.338,12.338-12.338    h370.351c4.142,0,7.5-3.358,7.5-7.5s-3.358-7.5-7.5-7.5H27.338C12.264,34.972,0,47.236,0,62.311v398.145    c0,9.135,7.432,16.567,16.568,16.567h67.788c4.142,0,7.5-3.358,7.5-7.5S88.498,462.023,84.355,462.023z"/>
		<path id="XMLID_154_" d="M74.159,73.812c-4.142,0-7.5,3.358-7.5,7.5s3.358,7.5,7.5,7.5H341.69c4.142,0,7.5-3.358,7.5-7.5    s-3.358-7.5-7.5-7.5H74.159z"/>
		<path id="XMLID_606_" d="M370.461,79.276v1.303c0,4.142,3.358,7.5,7.5,7.5s7.5-3.358,7.5-7.5v-1.303c0-4.142-3.358-7.5-7.5-7.5    S370.461,75.134,370.461,79.276z"/>
		<path id="XMLID_120_" d="M400.398,79.276v1.303c0,4.142,3.358,7.5,7.5,7.5s7.5-3.358,7.5-7.5v-1.303c0-4.142-3.358-7.5-7.5-7.5    S400.398,75.134,400.398,79.276z"/>
		<path id="XMLID_118_" d="M445.336,80.579v-1.303c0-4.142-3.358-7.5-7.5-7.5s-7.5,3.358-7.5,7.5v1.303c0,4.142,3.358,7.5,7.5,7.5    S445.336,84.721,445.336,80.579z"/>
		<path id="XMLID_627_" d="M424.153,367.768h-60.667c-4.142,0-7.5,3.358-7.5,7.5s3.358,7.5,7.5,7.5h60.667    c4.142,0,7.5-3.358,7.5-7.5S428.295,367.768,424.153,367.768z"/>
		<path id="XMLID_637_" d="M424.153,391.733h-21.546c-4.142,0-7.5,3.358-7.5,7.5s3.358,7.5,7.5,7.5h21.546    c4.142,0,7.5-3.358,7.5-7.5S428.295,391.733,424.153,391.733z"/>
		<path id="XMLID_115_" d="M155.768,335.717c1.919,0,3.839-0.732,5.303-2.197c2.929-2.929,2.929-7.678,0-10.606l-41.077-41.077    l41.077-41.077c2.929-2.929,2.929-7.678,0-10.606c-2.929-2.929-7.678-2.929-10.606,0l-46.38,46.38    c-1.407,1.406-2.197,3.314-2.197,5.303s0.79,3.897,2.197,5.303l46.38,46.38C151.929,334.985,153.849,335.717,155.768,335.717z"/>
		<path id="XMLID_642_" d="M361.53,230.154c-2.929-2.929-7.678-2.929-10.606,0c-2.929,2.929-2.929,7.678,0,10.606l41.077,41.077    l-41.077,41.077c-2.929,2.929-2.929,7.678,0,10.606c1.464,1.464,3.384,2.197,5.303,2.197s3.839-0.732,5.303-2.197l46.38-46.38    c1.407-1.406,2.197-3.314,2.197-5.303s-0.79-3.897-2.197-5.303L361.53,230.154z"/>
		<path id="XMLID_645_" d="M244.897,235.004c-3.653-1.951-8.198-0.571-10.149,3.083l-46.252,86.598    c-1.951,3.653-0.571,8.197,3.083,10.149c1.125,0.601,2.334,0.886,3.527,0.886c2.679,0,5.271-1.44,6.622-3.968l46.252-86.598    C249.931,241.5,248.551,236.956,244.897,235.004z"/>
		<path id="XMLID_113_" d="M253.05,334.569c4.142,0,7.5-3.358,7.5-7.5v-1.052c0-4.142-3.358-7.5-7.5-7.5s-7.5,3.358-7.5,7.5v1.052    C245.55,331.211,248.908,334.569,253.05,334.569z"/>
		<path id="XMLID_648_" d="M279.522,326.018v1.052c0,4.142,3.358,7.5,7.5,7.5s7.5-3.358,7.5-7.5v-1.052c0-4.142-3.358-7.5-7.5-7.5    S279.522,321.875,279.522,326.018z"/>
		<path id="XMLID_111_" d="M313.496,326.018v1.052c0,4.142,3.358,7.5,7.5,7.5s7.5-3.358,7.5-7.5v-1.052c0-4.142-3.358-7.5-7.5-7.5    S313.496,321.875,313.496,326.018z"/>
	</g>
</g>















</svg>
